<?xml version="1.0" standalone="no"?>
<!DOCTYPE svg PUBLIC "-//W3C//DTD SVG 20010904//EN"
 "http://www.w3.org/TR/2001/REC-SVG-20010904/DTD/svg10.dtd">
<svg version="1.0" xmlns="http://www.w3.org/2000/svg"
 width="700.000000pt" height="700.000000pt" viewBox="0 0 700.000000 700.000000"
 preserveAspectRatio="xMidYMid meet">
<metadata>
Created by potrace 1.14, written by Peter Selinger 2001-2017
</metadata>
<g transform="translate(0.000000,700.000000) scale(0.100000,-0.100000)"
fill="#000000" stroke="none">
<path d="M0 3523 c0 -1913 3 -3488 6 -3501 l6 -22 3494 0 3494 0 0 3500 0
3500 -3500 0 -3500 0 0 -3477z m3500 2882 l0 -405 -1247 -2 -1248 -3 -3 -2078
-2 -2077 -403 2 -402 3 -3 2470 c-1 1359 0 2476 3 2483 3 9 344 12 1655 12
l1650 0 0 -405z m1650 -2080 l0 -2485 -1650 0 -1650 0 0 1660 0 1660 1245 0
1245 0 0 818 c0 450 3 822 7 825 3 4 186 7 405 7 l398 0 0 -2485z m1658 -828
l2 -3307 -3307 2 -3308 3 -3 402 -2 403 2905 0 2905 0 0 2905 0 2905 403 -2
402 -3 3 -3308z"/>
<path d="M2652 3498 l3 -843 843 -3 842 -2 0 845 0 845 -845 0 -845 0 2 -842z"/>
</g>
</svg>
